:SAMPLES-PER-SECOND 30
:FULLY-SPECIFIED
:DEGREES
485
root  -3.8079 41.0033 0.144841 5.39517 -82.609 -1.54556
RightUpLeg  2.47119 -0.821568 -0.218487
RightLeg  -7.77945 -26.6573 4.28083
RightFoot  1.73722 -0.175522 1.63519
RightToes  -3.13588e-008 1.75238e-005 3.56266e-009
Spine  10.1693 1.27159 1.66641
Spine1  -17.0287 1.45026 -4.29455
HEad  -9.58566 -6.1684 7.41119
LeftShoulder1  0.411868 1.18493 -10.4948
LeftArm  -112.525 -40.6142 14.4073
LeftForeArm  167.564 -49.9118 -167.815
LeftHand  -1.35039 -4.8592 15.515
RightShoulder  -0.248533 -5.56527 3.96592
RightArm  -119.978 31.3668 -18.7266
RightForeArm  127.54 57.7931 160.737
RightHand  -1.59852 11.1632 -11.5547
LeftUpLeg  -0.519269 1.07127 3.92863
LeftLeg  -4.37855 8.17519 -0.682746
LeftFoot  2.03096 0.464769 -4.02306
LeftToes  4.76812e-008 1.47286e-008 1.3089e-009
486
root  -3.83183 41.0004 0.114952 4.91708 -82.1639 -1.30045
RightUpLeg  2.81592 -0.914275 -0.198615
RightLeg  -7.82065 -27.008 4.38699
RightFoot  1.62476 -0.172691 1.60462
RightToes  -3.13588e-008 1.75238e-005 3.56266e-009
Spine  9.05263 1.03179 1.21628
Spine1  -15.3613 1.22643 -3.65788
HEad  -9.77187 -5.81201 8.05732
LeftShoulder1  0.489376 0.946371 -11.9945
LeftArm  -106.253 -40.4058 10.7594
LeftForeArm  165.981 -55.2663 -165.246
LeftHand  -1.29481 -4.65611 15.1833
RightShoulder  -0.16921 -4.83354 4.85443
RightArm  -118.521 32.5029 -17.0218
RightForeArm  126.458 58.532 160.116
RightHand  -1.66462 11.0519 -12.0849
LeftUpLeg  -0.357106 1.16276 3.99401
LeftLeg  -4.27083 7.63083 -0.673776
LeftFoot  1.99089 0.469382 -4.09288
LeftToes  4.76812e-008 1.47286e-008 1.3089e-009
487
root  -3.84189 40.9973 0.0865107 4.22073 -81.9199 -0.807617
RightUpLeg  2.95368 -1.02562 -0.236487
RightLeg  -7.53935 -27.1246 4.31509
RightFoot  1.4489 -0.170498 1.58182
RightToes  -3.13588e-008 1.75238e-005 3.56266e-009
Spine  7.79847 0.752218 0.899349
Spine1  -14.0335 0.966785 -3.46209
HEad  -9.65799 -5.45069 7.94305
LeftShoulder1  0.612886 0.388943 -12.5968
LeftArm  -99.5672 -40.8899 6.17978
LeftForeArm  159.479 -62.6324 -159.851
LeftHand  -1.22969 -4.16064 15.159
RightShoulder  -0.0244427 -3.65465 6.56887
RightArm  -113.303 34.1249 -14.393
RightForeArm  122.885 62.1258 156.913
RightHand  -1.75338 10.9268 -12.7855
LeftUpLeg  -0.169192 1.18219 3.98125
LeftLeg  -4.2464 7.35486 -0.659419
LeftFoot  1.98634 0.469905 -4.10833
LeftToes  4.76812e-008 1.47286e-008 1.3089e-009
488
root  -3.83767 40.9958 0.0715395 4.13928 -81.8804 -0.826996
RightUpLeg  3.00474 -1.05449 -0.224485
RightLeg  -7.4161 -27.1474 4.28295
RightFoot  1.37572 -0.175218 1.66462
RightToes  -3.13588e-008 1.75238e-005 3.56266e-009
Spine  6.448 0.722431 0.61986
Spine1  -12.7761 0.934059 -3.01009
HEad  -9.25969 -5.3142 8.30257
LeftShoulder1  0.695123 0.105834 -13.4582
LeftArm  -93.2968 -42.1188 2.53778
LeftForeArm  145.261 -71.9746 -146.312
LeftHand  -1.22222 -3.98085 15.3376
RightShoulder  0.0284732 -3.29574 7.27314
RightArm  -106.051 36.2933 -10.2313
RightForeArm  112.986 67.4325 149.908
RightHand  -1.59748 9.5441 -12.7796
LeftUpLeg  -0.0860093 1.18869 3.99718
LeftLeg  -4.22717 7.31822 -0.629523
LeftFoot  1.98767 0.468424 -4.09933
LeftToes  4.76812e-008 1.47286e-008 1.3089e-009
489
root  -3.83643 40.9951 0.0630467 3.71414 -81.9378 -0.627472
RightUpLeg  3.24694 -1.17133 -0.279673
RightLeg  -7.40781 -26.9766 4.31961
RightFoot  1.33845 -0.166008 1.53006
RightToes  -3.13588e-008 1.75238e-005 3.56266e-009
Spine  5.58803 0.816833 0.146496
Spine1  -12.316 0.973568 -2.21564
HEad  -8.5745 -6.04514 7.38177
LeftShoulder1  0.753598 -0.117625 -13.8523
LeftArm  -87.6512 -43.6789 -0.845037
LeftForeArm  102.688 -79.5122 -103.37
LeftHand  -1.09839 -3.36481 14.7712
RightShoulder  0.0113814 -3.41206 6.84737
RightArm  -96.6695 38.2611 -5.01038
RightForeArm  93.6766 73.7219 134.084
RightHand  -1.67003 8.29131 -14.4637
LeftUpLeg  0.170729 1.22242 3.99337
LeftLeg  -4.22002 7.3086 -0.63463
LeftFoot  1.9454 0.476894 -4.24953
LeftToes  4.76812e-008 1.47286e-008 1.3089e-009
490
root  -3.82825 40.9946 0.058749 3.80295 -82.0489 -0.941742
RightUpLeg  3.44897 -1.20431 -0.259832
RightLeg  -7.35052 -26.8424 4.3084
RightFoot  1.30092 -0.174544 1.67007
RightToes  -3.13588e-008 1.75238e-005 3.56266e-009
Spine  4.34309 0.81928 0.103061
Spine1  -11.434 0.971011 -1.94011
HEad  -7.49655 -5.97745 7.40801
LeftShoulder1  0.714272 0.0853775 -13.9375
LeftArm  -83.2401 -46.4346 -3.13518
LeftForeArm  38.9914 -74.538 -41.181
LeftHand  -1.05108 -3.05446 14.6328
RightShoulder  0.0960239 -2.84045 7.22371
RightArm  -87.6786 39.5467 -2.38082
RightForeArm  53.8799 78.0167 96.9227
RightHand  -1.6163 9.87358 -12.593
LeftUpLeg  0.328964 1.32923 4.06721
LeftLeg  -4.034 7.2679 -0.642591
LeftFoot  1.8293 0.469989 -4.16179
LeftToes  4.76812e-008 1.47286e-008 1.3089e-009
491
root  -3.81086 40.994 0.0550111 3.26492 -82.2365 -0.667877
RightUpLeg  3.64389 -1.23619 -0.288791
RightLeg  -7.22078 -26.6252 4.17833
RightFoot  1.25791 -0.170333 1.61197
RightToes  -3.13588e-008 1.75238e-005 3.56266e-009
Spine  3.31861 0.90154 -0.119583
Spine1  -10.9937 1.04042 -1.66885
HEad  -6.81364 -5.81665 7.4676
LeftShoulder1  0.643907 0.327631 -13.2362
LeftArm  -79.3269 -49.1585 -4.35105
LeftForeArm  13.3015 -60.4636 -18.8336
LeftHand  -0.734306 -1.13787 13.104
RightShoulder  0.122091 -2.6519 6.90102
RightArm  -78.5245 40.7676 -0.0449838
RightForeArm  3.13761 74.338 49.697
RightHand  -1.49115 9.39777 -12.029
LeftUpLeg  0.566101 1.37442 4.04567
LeftLeg  -3.91526 7.40159 -0.665122
LeftFoot  1.74285 0.468387 -4.15566
LeftToes  4.76812e-008 1.47286e-008 1.3089e-009
492
root  -3.785 40.9935 0.0437235 2.58951 -82.3303 -0.359253
RightUpLeg  3.86186 -1.32001 -0.328125
RightLeg  -6.90192 -26.4697 4.00384
RightFoot  1.14103 -0.17217 1.64786
RightToes  -3.13588e-008 1.75238e-005 3.56266e-009
Spine  2.74711 0.955919 -0.38029
Spine1  -10.9108 1.07419 -1.3383
HEad  -5.31289 -6.16218 7.27783
LeftShoulder1  0.582197 0.496051 -12.259
LeftArm  -76.5868 -53.1435 -5.03962
LeftForeArm  5.95177 -43.7812 -10.267
LeftHand  -0.455716 1.11044 12.3277
RightShoulder  0.0956267 -2.78898 5.86558
RightArm  -68.7399 42.4026 1.36893
RightForeArm  -20.6168 63.8158 25.9036
RightHand  -1.45351 9.26012 -11.8483
LeftUpLeg  0.853532 1.45648 4.04785
LeftLeg  -3.72732 7.36765 -0.688273
LeftFoot  1.64312 0.467419 -4.15584
LeftToes  4.76812e-008 1.47286e-008 1.3089e-009
493
root  -3.75444 40.993 0.0346229 2.27768 -82.3652 -0.527008
RightUpLeg  4.21212 -1.36705 -0.29576
RightLeg  -6.63274 -26.4394 3.86261
RightFoot  1.06154 -0.173123 1.6706
RightToes  -3.13588e-008 1.75238e-005 3.56266e-009
Spine  2.06766 0.92667 -0.794479
Spine1  -10.3683 1.00892 -0.714568
HEad  -4.51358 -6.05096 7.14378
LeftShoulder1  0.615295 0.213633 -11.4799
LeftArm  -69.0429 -55.0864 -0.95333
LeftForeArm  -2.58069 -25.3384 -5.5554
LeftHand  -0.555589 1.07056 14.9185
RightShoulder  0.103044 -2.69012 4.97075
RightArm  -57.6407 44.2225 0.625036
RightForeArm  -33.0579 51.644 16.2207
RightHand  -1.35333 8.17271 -11.881
LeftUpLeg  1.29777 1.54392 4.09317
LeftLeg  -3.65789 7.29278 -0.664483
LeftFoot  1.60539 0.467364 -4.16407
LeftToes  4.76812e-008 1.47286e-008 1.3089e-009
494
root  -3.70191 40.9928 0.0290388 2.43643 -82.2783 -1.1236
RightUpLeg  4.59444 -1.42004 -0.243964
RightLeg  -6.59503 -26.4494 3.88907
RightFoot  1.05316 -0.170444 1.63802
RightToes  -3.13588e-008 1.75238e-005 3.56266e-009
Spine  1.82715 0.535678 -1.02994
Spine1  -9.99398 0.604466 -0.409572
HEad  -4.34884 -5.12159 7.01024
LeftShoulder1  0.493887 0.535722 -9.24823
LeftArm  -58.6192 -56.2731 -0.435353
LeftForeArm  0.736688 -11.1253 -3.36556
LeftHand  -0.504557 0.770892 12.757
RightShoulder  0.142892 -2.33669 4.44824
RightArm  -45.9438 46.4592 -0.232825
RightForeArm  -43.074 41.5889 11.9704
RightHand  -1.22019 7.70283 -11.1373
LeftUpLeg  1.55147 1.62053 4.17497
LeftLeg  -3.40153 7.10155 -0.575455
LeftFoot  1.50213 0.476806 -4.31154
LeftToes  4.76812e-008 1.47286e-008 1.3089e-009
495
root  -3.64279 40.9928 0.0347102 2.64868 -82.4828 -1.49603
RightUpLeg  4.59297 -1.40862 -0.232349
RightLeg  -6.45304 -26.2584 3.81245
RightFoot  1.09522 -0.174815 1.71632
RightToes  -3.13588e-008 1.75238e-005 3.56266e-009
Spine  1.67881 0.357657 -1.33238
Spine1  -9.61215 0.390279 0.100071
HEad  -5.33106 -4.54237 7.24295
LeftShoulder1  0.497693 0.43888 -8.74277
LeftArm  -57.0079 -56.0318 -2.50991
LeftForeArm  17.087 -5.41284 -2.95289
LeftHand  -0.443502 -0.122074 9.40557
RightShoulder  0.151093 -2.15988 3.21717
RightArm  -37.2502 47.6333 2.44879
RightForeArm  -41.4443 36.2474 10.1227
RightHand  -1.26987 7.3556 -11.8614
LeftUpLeg  1.58323 1.6711 4.21186
LeftLeg  -3.23666 7.2509 -0.571561
LeftFoot  1.47037 0.476585 -4.29707
LeftToes  4.76812e-008 1.47286e-008 1.3089e-009
496
root  -3.58662 40.9931 0.0457145 2.38953 -82.8841 -1.17715
RightUpLeg  4.3928 -1.41998 -0.315298
RightLeg  -6.40714 -25.9013 3.75142
RightFoot  1.16049 -0.168629 1.63276
RightToes  -3.13588e-008 1.75238e-005 3.56266e-009
Spine  1.16646 0.484696 -1.26587
Spine1  -8.50516 0.53214 -0.018201
HEad  -7.04729 -3.71609 7.46219
LeftShoulder1  0.627041 -0.0209501 -10.5364
LeftArm  -54.6032 -54.7532 -4.89472
LeftForeArm  12.1886 -9.11547 -4.02834
LeftHand  -0.459854 0.289285 10.5122
RightShoulder  0.181816 -1.96651 3.91726
RightArm  -36.1025 47.3502 3.97065
RightForeArm  -38.0834 35.6507 9.85747
RightHand  -1.22032 7.5168 -11.2838
LeftUpLeg  1.57064 1.61106 4.12849
LeftLeg  -3.38256 7.70507 -0.622995
LeftFoot  1.55625 0.481083 -4.34223
LeftToes  4.76812e-008 1.47286e-008 1.3089e-009
497
root  -3.53683 40.9938 0.0415341 2.6868 -83.0731 -1.34204
RightUpLeg  4.30983 -1.34139 -0.277659
RightLeg  -6.77753 -25.8214 3.88671
RightFoot  1.32821 -0.156515 1.4596
RightToes  -3.13588e-008 1.75238e-005 3.56266e-009
Spine  0.857224 0.50678 -1.60039
Spine1  -7.43883 0.515946 0.447846
HEad  -8.79237 -3.55905 7.54111
LeftShoulder1  0.659641 0.114761 -12.3614
LeftArm  -49.8327 -52.4911 -6.52696
LeftForeArm  8.27914 -16.8803 -4.77458
LeftHand  -0.473642 0.166709 10.5888
RightShoulder  0.204294 -1.88322 4.79524
RightArm  -36.7125 45.8613 3.98777
RightForeArm  -38.4899 38.885 10.9359
RightHand  -1.2545 7.88629 -11.2817
LeftUpLeg  1.45766 1.6184 4.14785
LeftLeg  -3.54319 7.90254 -0.673211
LeftFoot  1.65002 0.486649 -4.3617
LeftToes  4.76812e-008 1.47286e-008 1.3089e-009
498
root  -3.48936 40.9959 0.0326982 2.99274 -83.2318 -1.35236
RightUpLeg  3.817 -1.23163 -0.252304
RightLeg  -6.60451 -25.7678 3.76401
RightFoot  1.39726 -0.162158 1.5648
RightToes  -3.13588e-008 1.75238e-005 3.56266e-009
Spine  1.19168 0.500638 -1.91167
Spine1  -7.61695 0.491861 0.665563
HEad  -10.1075 -3.26132 7.63956
LeftShoulder1  0.624179 0.326915 -12.5605
LeftArm  -41.936 -48.9233 -7.5115
LeftForeArm  2.95571 -25.4535 -5.20343
LeftHand  -0.521852 -0.365545 10.6262
RightShoulder  0.217422 -1.8544 5.46598
RightArm  -35.8887 43.0409 2.93095
RightForeArm  -36.8244 43.4593 12.5604
RightHand  -1.26368 7.77365 -11.4531
LeftUpLeg  1.13794 1.52591 4.11698
LeftLeg  -3.66729 8.17317 -0.664408
LeftFoot  1.79055 0.496847 -4.41058
LeftToes  4.76812e-008 1.47286e-008 1.3089e-009
